<?xml version="1.0" standalone="no"?>
<!DOCTYPE svg PUBLIC "-//W3C//DTD SVG 20010904//EN"
 "http://www.w3.org/TR/2001/REC-SVG-20010904/DTD/svg10.dtd">
<svg version="1.0" xmlns="http://www.w3.org/2000/svg"
 width="823.000000pt" height="823.000000pt" viewBox="0 0 823.000000 823.000000"
 preserveAspectRatio="xMidYMid meet">
<metadata>
Created by potrace 1.11, written by Peter Selinger 2001-2013
</metadata>
<g transform="translate(0.000000,823.000000) scale(0.100000,-0.100000)"
fill="#000000" stroke="none">
<path d="M3257 7194 c-1 -1 -45 -5 -97 -9 -52 -3 -102 -8 -110 -10 -8 -2 -39
-7 -69 -10 -30 -4 -63 -9 -75 -11 -12 -2 -37 -7 -56 -10 -170 -28 -491 -136
-690 -232 -180 -87 -396 -218 -510 -308 -268 -213 -425 -379 -625 -659 -18
-25 -63 -97 -112 -180 -39 -66 -176 -355 -207 -435 -38 -104 -103 -311 -111
-363 -3 -17 -10 -48 -15 -67 -5 -19 -11 -53 -15 -75 -3 -22 -8 -53 -10 -70 -3
-16 -7 -43 -10 -60 -26 -161 -26 -586 -1 -745 3 -14 10 -59 16 -100 23 -144
99 -428 144 -535 7 -16 26 -61 42 -100 15 -38 58 -128 94 -200 363 -715 981
-1225 1770 -1459 47 -14 96 -27 110 -30 14 -2 54 -11 90 -20 68 -16 174 -33
270 -42 30 -3 64 -7 75 -9 11 -2 691 -4 1511 -4 l1492 -1 0 -82 c0 -46 1 -89
1 -95 1 -10 152 -13 721 -13 l720 0 0 438 0 437 -107 0 -108 0 -180 78 c-99
43 -243 105 -320 139 -77 33 -158 68 -180 78 -22 10 -89 39 -150 64 -60 26
-123 53 -140 61 -29 14 -45 12 -45 -6 0 -5 -11 -31 -24 -58 l-24 -50 172 -74
c94 -41 249 -108 343 -148 95 -41 173 -76 173 -79 0 -3 -191 -5 -425 -5 -420
0 -425 0 -426 -20 -1 -11 -1 -57 -1 -103 l0 -83 -1516 4 c-835 2 -1528 6
-1542 9 -14 3 -45 9 -70 13 -25 3 -63 10 -85 15 -22 5 -54 11 -70 14 -52 9
-225 63 -320 99 -210 81 -432 203 -614 339 -96 73 -314 281 -387 371 -250 309
-446 727 -509 1082 -31 173 -37 238 -39 410 -3 155 9 319 30 430 2 11 6 36 10
55 3 19 19 85 35 145 16 61 31 117 33 126 13 50 98 251 152 359 173 345 422
639 729 857 422 300 904 457 1405 456 111 0 315 -10 362 -18 13 -2 57 -9 98
-14 41 -6 84 -13 95 -15 11 -2 54 -11 97 -20 183 -38 416 -123 593 -216 70
-37 251 -153 265 -169 3 -3 23 -19 45 -36 22 -16 53 -41 69 -55 416 -363 667
-854 741 -1449 3 -20 7 -54 10 -76 3 -22 8 -139 10 -260 3 -199 1 -231 -20
-340 -63 -328 -205 -549 -440 -691 -125 -75 -315 -147 -421 -159 -33 -4 -70
-9 -84 -11 -14 -2 -62 -4 -108 -5 -103 0 -156 24 -187 86 -28 57 -27 231 3
375 11 58 23 119 26 135 3 17 23 120 45 230 66 331 122 618 127 645 2 14 9 45
14 70 5 25 28 142 51 260 22 118 43 224 45 235 2 11 7 34 10 50 3 17 25 134
50 260 25 127 48 241 50 255 3 14 7 31 10 39 2 8 7 39 11 68 5 49 3 57 -22 83
l-27 28 -225 1 c-188 2 -229 -1 -249 -14 -23 -15 -38 -53 -50 -130 -3 -22 -12
-66 -19 -98 -16 -70 -15 -63 -15 -84 0 -10 -16 7 -37 37 -48 72 -173 196 -248
247 -193 130 -439 200 -690 197 -264 -3 -486 -54 -708 -165 -487 -242 -868
-722 -1036 -1304 -29 -103 -68 -299 -76 -385 -4 -41 -9 -84 -12 -95 -6 -30 -5
-373 2 -430 36 -296 111 -510 240 -690 217 -303 562 -460 1010 -459 335 1 610
98 888 314 62 49 225 207 238 232 5 10 14 18 20 18 6 0 8 -4 5 -8 -8 -13 34
-154 62 -207 65 -122 207 -222 367 -261 127 -31 504 -21 645 16 19 5 48 11 64
14 62 11 227 71 332 121 220 106 419 261 536 418 132 179 234 417 273 642 3
17 8 37 10 45 27 98 27 635 0 802 -2 13 -6 43 -9 68 -6 44 -30 181 -41 230 -3
14 -7 36 -10 50 -14 76 -103 351 -140 437 -103 236 -212 422 -349 598 -86 110
-70 92 -196 220 -536 548 -1208 812 -2083 819 -87 1 -159 1 -160 0z m324
-1579 c245 -48 427 -207 516 -453 13 -35 26 -81 29 -101 3 -20 8 -39 9 -42 25
-39 25 -469 0 -541 -2 -7 -7 -31 -10 -52 -28 -195 -149 -499 -273 -686 -245
-370 -584 -585 -937 -595 -330 -9 -566 121 -695 383 -28 58 -57 138 -65 183
-3 13 -10 49 -16 79 -27 126 -11 528 25 648 3 10 7 28 10 42 28 154 140 419
239 565 215 321 546 538 882 579 105 14 181 11 286 -9z"/>
</g>
</svg>
